<svg width="33" height="40" viewBox="0 0 33 40" fill="none" xmlns="http://www.w3.org/2000/svg">
<path d="M11.2695 29.8193V38.3388C11.2695 39.256 12.222 39.9996 13.397 39.9996C14.5716 39.9996 15.5245 39.256 15.5245 38.3388V30.1247C13.8948 30.1091 12.4745 29.9882 11.2695 29.8193ZM19.5076 33.1862C19.5656 31.8499 19.7799 30.7606 20.0807 29.8735C18.9668 30.0138 17.6833 30.1108 16.234 30.1247V38.3388C16.234 39.256 17.1863 39.9996 18.3615 39.9996C19.5359 39.9996 20.489 39.256 20.489 38.3388V34.5687C20.3232 34.4938 20.1709 34.3993 20.0367 34.2871C19.6773 33.9873 19.4897 33.5962 19.5076 33.1862Z" fill="#55079B"/>
<path d="M15.8875 29.7181C17.5683 29.7181 19.027 29.5956 20.2557 29.4196C21.1844 27.0855 22.6709 26.3201 23.1912 26.1174C23.3348 26.0391 23.4897 25.9812 23.6514 25.9424C23.0502 25.3637 22.6857 24.6168 22.6857 23.8008C22.6857 23.0767 22.9749 22.4082 23.4593 21.8618L21.4102 13.6532C21.7106 13.9627 22.0217 14.3307 22.3343 14.7662C23.275 16.0775 24.2265 18.0075 24.9264 20.8396C25.4782 20.6119 26.0996 20.4806 26.759 20.4806C27.0684 20.4806 27.3685 20.5114 27.6583 20.5649C26.1034 14.0942 23.2372 11.513 21.2654 10.4849C20.3622 10.014 19.6465 9.86828 19.3307 9.8244C18.969 9.7506 17.44 9.45898 15.8875 9.45898C14.3349 9.45898 12.8059 9.7506 12.4441 9.8244C12.1284 9.8681 11.4124 10.014 10.509 10.4851C8.32317 11.625 5.0389 14.6746 3.65976 22.8138L0 25.1608L6.13352 31.5161L9.23922 29.5249L9.86145 29.1259C11.3554 29.4437 13.3716 29.7181 15.8875 29.7181ZM3.63718 23.4855C3.76129 23.9282 4.2096 24.2827 4.79427 24.3455C4.85506 24.3521 4.91564 24.3553 4.97537 24.3553C5.65312 24.3553 6.24264 23.9457 6.33382 23.3831C6.43978 22.7285 6.55819 22.1121 6.68652 21.5304L10.1793 19.2909L15.5298 24.8348L6.23968 30.7915L0.889243 25.2476L3.63718 23.4855ZM9.44396 14.7538C9.75571 14.3204 10.0662 13.955 10.3663 13.6472L8.92008 19.4414L8.15072 19.9347L6.86804 20.7572C7.56711 17.9591 8.51018 16.0519 9.44396 14.7538Z" fill="#55079B"/>
<path d="M15.6598 8.78046C18.0844 8.78046 20.05 6.81489 20.05 4.39023C20.05 1.96557 18.0844 0 15.6598 0C13.2351 0 11.2695 1.96557 11.2695 4.39023C11.2695 6.81489 13.2351 8.78046 15.6598 8.78046Z" fill="#55079B"/>
<path d="M20.4889 33.1899C20.4689 33.682 20.927 34.0945 21.5118 34.1113C21.5241 34.1117 21.5362 34.1118 21.5483 34.1118C22.1168 34.1118 22.587 33.7322 22.6065 33.2504C22.6721 31.6202 22.9672 30.4972 23.305 29.7306V33.9702V38.7256C23.305 39.4292 23.9824 39.9994 24.8184 39.9994C25.6545 39.9994 26.3319 39.4292 26.3319 38.7256V34.6494H26.9373V38.7256C26.9373 39.4292 27.6147 39.9994 28.4507 39.9994C29.2868 39.9994 29.9642 39.4292 29.9642 38.7256V32.4898V29.7161C30.3004 30.482 30.5964 31.6089 30.6626 33.2502C30.6822 33.7322 31.1524 34.1117 31.7208 34.1117C31.7329 34.1117 31.745 34.1115 31.7573 34.1111C32.3421 34.0943 32.8002 33.682 32.7802 33.1897C32.5619 27.7686 29.9458 26.6754 29.6482 26.5686C29.6468 26.5681 29.6454 26.5679 29.6439 26.5676C29.5079 26.48 29.3402 26.4258 29.1568 26.4258H28.7696C28.1557 26.766 27.4226 26.9655 26.6344 26.9655C25.8462 26.9655 25.1128 26.766 24.4992 26.4258H24.1119C23.9269 26.4258 23.7578 26.481 23.6214 26.5701L23.6208 26.5688C23.3231 26.6756 20.7073 27.7687 20.4889 33.1899Z" fill="#55079B"/>
<path d="M26.4893 26.3419C28.1058 26.3419 29.4161 25.0315 29.4161 23.4151C29.4161 21.7987 28.1058 20.4883 26.4893 20.4883C24.8729 20.4883 23.5625 21.7987 23.5625 23.4151C23.5625 25.0315 24.8729 26.3419 26.4893 26.3419Z" fill="#55079B"/>
<path d="M5.47615 26.5404L5.59388 26.6813C5.62162 26.7147 5.62797 26.7348 5.60066 26.7674C5.56911 26.8032 5.50305 26.8557 5.45434 26.8872C5.13355 27.0969 4.84685 26.9783 4.59551 26.6767C4.35094 26.3831 4.35708 26.1158 4.6404 25.9308C4.69122 25.8974 4.7649 25.8582 4.81064 25.8436C4.85426 25.8305 4.87183 25.8429 4.89936 25.8762L5.0137 26.0134L5.21677 25.8597L4.9559 25.5463C4.7901 25.5731 4.60228 25.6592 4.46296 25.7503C4.11548 25.9769 3.91221 26.3726 4.33654 26.8823C4.71049 27.3309 5.15155 27.3847 5.59621 27.0943C5.76222 26.986 5.9007 26.8527 5.96677 26.731L5.70251 26.4137L5.47615 26.5404ZM6.08725 26.5072L6.21133 26.6562L7.23808 25.9859L6.95413 25.6451L6.7301 25.7703L6.8364 25.8978C6.8688 25.9366 6.86922 25.9578 6.82073 25.9896L6.4578 26.2266L5.7006 25.3174C5.66122 25.2706 5.66757 25.2453 5.70632 25.2138L5.77048 25.1596L5.6483 25.0128L5.13059 25.3508L5.25933 25.5056L5.38383 25.4335L6.15585 26.3597C6.19333 26.405 6.18762 26.427 6.1512 26.4571L6.08725 26.5072ZM6.88849 24.4598L7.29885 25.6168C7.31325 25.6586 7.32024 25.6875 7.27429 25.7263L7.2258 25.7673L7.34819 25.9141L7.82609 25.6018L7.69735 25.4473L7.57941 25.515L7.48434 25.2533L7.98871 24.9238L8.17971 25.0379C8.22799 25.0672 8.22926 25.0936 8.19051 25.1251L8.12402 25.1804L8.24641 25.3272L8.77302 24.9834L8.64427 24.8289L8.52485 24.8945L7.11717 24.0536L6.63482 24.3689L6.76356 24.5234L6.88849 24.4598ZM7.14237 24.3669L7.80767 24.7883L7.39181 25.0599L7.13581 24.3708L7.14237 24.3669ZM9.15034 24.4895L8.37684 23.5606C8.34085 23.5175 8.34656 23.4958 8.38319 23.4656L8.44672 23.415L8.32285 23.2661L7.8117 23.5998L7.94044 23.7545L8.06261 23.6838L8.83294 24.6087C8.87359 24.6574 8.86428 24.679 8.82786 24.709L8.76624 24.7581L8.89032 24.9071L9.40147 24.5732L9.27273 24.4188L9.15034 24.4895ZM8.99768 22.8258L8.56169 23.1106L8.69044 23.2652L8.81282 23.1945L9.50904 24.1612C9.54779 24.2118 9.54144 24.237 9.50481 24.2669L9.44319 24.3161L9.56727 24.4651L10.052 24.1487L9.92321 23.9942L9.80548 24.0619L9.1946 23.2386L9.19905 23.2356L10.2173 23.8139L10.4208 23.681L10.1059 22.6344L10.1104 22.6314L10.7643 23.3385C10.8075 23.3861 10.8153 23.408 10.7729 23.439L10.7069 23.4907L10.831 23.6397L11.3201 23.3205L11.1914 23.1659L11.0715 23.2352L10.2349 22.3538C10.1983 22.3141 10.2057 22.282 10.2444 22.2505L10.3014 22.2042L10.1775 22.0554L9.73709 22.3429L10.0915 23.4573L10.0848 23.4617L8.99768 22.8258ZM11.4522 22.3572C11.6405 22.2918 11.798 22.2554 11.9041 22.3829C12.0316 22.5356 11.9373 22.6605 11.7933 22.7544C11.7315 22.7949 11.6477 22.8376 11.6038 22.8509C11.5625 22.8627 11.5426 22.8515 11.5149 22.8181L11.4042 22.6848L11.2026 22.8408L11.4668 23.158C11.6273 23.1291 11.808 23.0384 11.9606 22.9387C12.3125 22.7088 12.3871 22.4333 12.1732 22.1769C11.9593 21.9202 11.6934 21.9907 11.4429 22.067C11.2333 22.1311 11.0827 22.172 10.9783 22.0468C10.8706 21.9172 10.9591 21.8019 11.0785 21.724C11.1295 21.6908 11.2091 21.6509 11.2487 21.6372C11.2924 21.6239 11.3099 21.6366 11.3375 21.67L11.4435 21.7973L11.6468 21.6434L11.3906 21.3359C11.2409 21.3612 11.0575 21.4445 10.9182 21.5354C10.6061 21.7391 10.5212 22.0185 10.7202 22.2576C10.929 22.5081 11.2079 22.441 11.4522 22.3572Z" fill="#55079B"/>
</svg>
