<svg width="90" height="80" viewBox="0 0 90 80" fill="none" xmlns="http://www.w3.org/2000/svg">
<path d="M14.0088 9.94922H9.39118C8.82046 9.94922 8.35352 10.367 8.35352 10.8777V17.7635C8.35352 18.2742 8.82046 18.692 9.39118 18.692H13.9915C14.5795 18.692 15.0291 18.2742 15.0464 17.7635V10.8777C15.0464 10.367 14.5795 9.94922 14.0088 9.94922ZM12.9711 16.8351H10.4288V11.8061H12.9711V16.8351Z" fill="url(#paint0_linear_1442_1595)"/>
<path d="M19.3531 18.692H23.9707C24.5414 18.692 25.0083 18.2742 25.0083 17.7635V10.8777C25.0083 10.367 24.5414 9.94922 23.9707 9.94922H19.3531C18.7824 9.94922 18.3154 10.367 18.3154 10.8777V17.7635C18.3154 18.2742 18.7824 18.692 19.3531 18.692ZM20.3908 11.8061H22.933V16.8351H20.3908V11.8061Z" fill="url(#paint1_linear_1442_1595)"/>
<path d="M29.4351 18.692H34.0527C34.6407 18.692 35.0904 18.2742 35.0904 17.7635V10.8777C35.0904 10.367 34.6234 9.94922 34.0527 9.94922H29.4351C28.8644 9.94922 28.3975 10.367 28.3975 10.8777V17.7635C28.3975 18.2742 28.8644 18.692 29.4351 18.692ZM30.4901 11.8061H33.0323V16.8351H30.4901V11.8061Z" fill="url(#paint2_linear_1442_1595)"/>
<path d="M39.1714 18.692H43.789C44.3425 18.692 44.8094 18.2742 44.8267 17.7635V10.8777C44.8267 10.367 44.3598 9.94922 43.789 9.94922H39.1714C38.6007 9.94922 38.1338 10.367 38.1338 10.8777V17.7635C38.1338 18.2742 38.6007 18.692 39.1714 18.692ZM40.1918 11.8061H42.7341V16.8351H40.1918V11.8061Z" fill="url(#paint3_linear_1442_1595)"/>
<path d="M14.0088 33.083H9.39118C8.82046 33.083 8.35352 33.5008 8.35352 34.0114V40.8973C8.35352 41.408 8.82046 41.8258 9.39118 41.8258H13.9915C14.5795 41.8258 15.0291 41.408 15.0464 40.8973V34.0114C15.0464 33.5008 14.5795 33.083 14.0088 33.083ZM12.9711 39.9689H10.4288V34.9399H12.9711V39.9689Z" fill="url(#paint4_linear_1442_1595)"/>
<path d="M19.3531 41.8258H23.9707C24.5414 41.8258 25.0083 41.408 25.0083 40.8973V34.0114C25.0083 33.5008 24.5414 33.083 23.9707 33.083H19.3531C18.7824 33.083 18.3154 33.5008 18.3154 34.0114V40.8973C18.3154 41.408 18.7824 41.8258 19.3531 41.8258ZM20.3908 34.9399H22.933V39.9689H20.3908V34.9399Z" fill="url(#paint5_linear_1442_1595)"/>
<path d="M29.4351 41.8258H34.0527C34.6407 41.8258 35.0904 41.408 35.0904 40.8973V34.0114C35.0904 33.5008 34.6234 33.083 34.0527 33.083H29.4351C28.8644 33.083 28.3975 33.5008 28.3975 34.0114V40.8973C28.3975 41.408 28.8644 41.8258 29.4351 41.8258ZM30.4901 34.9399H33.0323V39.9689H30.4901V34.9399Z" fill="url(#paint6_linear_1442_1595)"/>
<path d="M14.0088 21.2451H9.39118C8.82046 21.2451 8.35352 21.6629 8.35352 22.1736V29.0594C8.35352 29.5701 8.82046 29.9879 9.39118 29.9879H13.9915C14.5795 29.9879 15.0291 29.5701 15.0464 29.0594V22.1736C15.0464 21.6629 14.5795 21.2451 14.0088 21.2451ZM12.9711 28.131H10.4288V23.102H12.9711V28.131Z" fill="url(#paint7_linear_1442_1595)"/>
<path d="M19.3531 29.9879H23.9707C24.5414 29.9879 25.0083 29.5701 25.0083 29.0594V22.1736C25.0083 21.6629 24.5414 21.2451 23.9707 21.2451H19.3531C18.7824 21.2451 18.3154 21.6629 18.3154 22.1736V29.0594C18.3154 29.5701 18.7824 29.9879 19.3531 29.9879ZM20.3908 23.102H22.933V28.131H20.3908V23.102Z" fill="url(#paint8_linear_1442_1595)"/>
<path d="M29.4351 29.9879H34.0527C34.6407 29.9879 35.0904 29.5701 35.0904 29.0594V22.1736C35.0904 21.6629 34.6234 21.2451 34.0527 21.2451H29.4351C28.8644 21.2451 28.3975 21.6629 28.3975 22.1736V29.0594C28.3975 29.5701 28.8644 29.9879 29.4351 29.9879ZM30.4901 23.102H33.0323V28.131H30.4901V23.102Z" fill="url(#paint9_linear_1442_1595)"/>
<path d="M39.1714 29.9879H43.789C44.3425 29.9879 44.8094 29.5701 44.8267 29.0594V22.1736C44.8267 21.6629 44.3598 21.2451 43.789 21.2451H39.1714C38.6007 21.2451 38.1338 21.6629 38.1338 22.1736V29.0594C38.1338 29.5701 38.6007 29.9879 39.1714 29.9879ZM40.1918 23.102H42.7341V28.131H40.1918V23.102Z" fill="url(#paint10_linear_1442_1595)"/>
<path d="M87.9072 30.793L82.3211 27.2186V18.8008H74.3311V22.0967L66.393 17.0058L50.4303 26.7853V5.69439H51.0875C51.6582 5.69439 52.1252 5.2766 52.1252 4.76596V0.928433C52.1252 0.417795 51.6582 0 51.0875 0H2.07532C1.50461 0 1.03766 0.417795 1.03766 0.928433V4.76596C1.03766 5.2766 1.50461 5.69439 2.07532 5.69439H2.7498V53.8491H0V80H17.3116H44.6886C44.8269 80 44.9653 79.9691 45.0864 79.9226L83.8949 63.706C87.4921 62.1741 88.2012 59.1721 87.3364 56.8975C86.8868 55.7215 85.9875 54.6538 84.7769 53.9574V34.7853L84.8461 34.8317C85.2784 35.1257 85.8145 35.2805 86.368 35.2805L86.8522 35.2495C87.2154 35.1876 87.544 35.0638 87.838 34.8781C88.132 34.6925 88.3914 34.4603 88.5989 34.1973C89.4118 33.0832 89.1005 31.5822 87.9072 30.793ZM76.4064 20.6576H80.2458V25.8878L76.4064 23.4275V20.6576ZM3.11298 1.85687L26.5814 3.83752L50.0498 1.85687V3.83752H3.11298V1.85687ZM5.40661 6.72269H47.6676V28.2353L43.9449 30.7621C43.0802 31.3037 42.6651 32.2012 42.7689 33.0832H39.1717C38.601 33.0832 38.134 33.501 38.134 34.0116V40.8975C38.134 41.4081 38.601 41.8259 39.1717 41.8259H43.7893C44.3427 41.8259 44.8096 41.4081 44.8269 40.8975V35.2186C45.0172 35.265 45.2247 35.2805 45.4322 35.2805C45.9684 35.2805 46.4872 35.1412 46.9196 34.8627L47.6676 34.0116V52.1315L38.3589 52.8124C37.252 52.5803 30.8358 51.234 27.3942 51.3114C22.7594 51.4043 18.5222 53.0445 16.7063 53.8491H5.40661V6.72269ZM42.7343 34.94V39.9691H40.1921V34.94H42.7343ZM3.66029 55.6441H14.6137V78.1431H2.07532L3.66029 55.6441ZM81.0586 61.5242L63.3845 68.5714L43.7893 76.6387L17.3116 78.1431V55.6441C18.4012 55.1489 21.0472 54.0348 24.2294 53.4778C25.267 53.2921 26.3393 53.1838 27.4461 53.1528C30.8531 53.0754 37.9438 54.6228 38.013 54.6383C38.1167 54.6538 38.2205 54.6692 38.3243 54.6538L54.9614 53.7253H54.996C56.345 53.6016 58.4895 54.3752 58.8699 56.4487C59.0602 57.5319 58.8354 58.5996 58.3857 59.2805C58.3338 59.3733 58.2646 59.4662 58.1955 59.5435C57.6248 60.2089 56.7255 60.5957 55.5494 60.7041L52.7996 60.9362L45.6571 61.5242C44.7232 61.5861 43.893 62.0348 43.3742 62.7311L43.1667 63.0097C42.0944 64.4797 38.8258 68.9671 33.5164 69.5242C32.9457 69.5551 32.5134 69.9884 32.5307 70.499C32.548 71.0097 33.0495 71.3965 33.6202 71.381L33.7413 71.3656C40.0191 70.7157 43.6855 65.6712 44.8961 64.0155L45.0864 63.7524C45.2593 63.5358 45.5187 63.3965 45.8127 63.3656L55.7224 62.5764C57.3826 62.4217 58.6624 61.911 59.6482 60.8743C64.9749 59.3269 76.1989 56.1083 81.0586 55.1335C83.1166 54.7157 84.7942 56.0464 85.3649 57.501C85.9356 58.9555 83.6527 60.4255 81.0586 61.5242ZM72.7919 55.2418C68.918 56.2785 64.6636 57.4855 61.4122 58.4139V37.4623H72.7919V55.2418ZM80.6089 53.323C79.1389 53.617 77.1155 54.1122 74.8672 54.6847V35.6054H59.3369V53.3849C58.0917 52.2863 56.3623 51.7447 54.8058 51.8839L50.4303 52.1315V32.7118L66.3238 22.9787L82.7016 33.4545V53.2611C82.0444 53.1683 81.3526 53.1838 80.6089 53.323ZM86.8695 33.176C86.7657 33.2998 86.6274 33.3772 86.4717 33.4236C86.3161 33.4545 86.1777 33.4081 86.0567 33.3308L83.7392 31.8453L66.3584 20.7041L49.2716 31.1644L45.7435 33.3308C45.7262 33.3462 45.709 33.3617 45.6744 33.3617C45.3977 33.4855 45.0691 33.3927 44.9307 33.1605C44.7232 32.882 46.5751 32.8201 45.1036 32.3095L50.4303 30.4551L66.3584 20.7041L82.6771 31.1644L86.6965 32.3095C86.8868 32.4333 86.9906 32.6344 86.9906 32.8201C86.9733 32.9439 86.9387 33.0677 86.8695 33.176Z" fill="url(#paint11_linear_1442_1595)"/>
<path d="M52.9553 59.6371C53.5261 59.6371 53.993 59.2193 53.993 58.7087C53.993 58.492 53.9065 58.2909 53.7509 58.1207C53.2839 57.5791 53.2321 56.8209 53.6298 56.2329C53.9411 55.7996 53.8028 55.2271 53.3185 54.9485C52.8343 54.67 52.1944 54.7938 51.8831 55.2271C51.0011 56.4959 51.1049 58.1362 52.1598 59.2967C52.35 59.5133 52.644 59.6371 52.9553 59.6371Z" fill="url(#paint12_linear_1442_1595)"/>
<path d="M10.0832 67.6676C8.35373 67.5903 6.901 68.7817 6.81453 70.3137C6.72806 71.8456 8.05972 73.1609 9.77186 73.2382H9.92751C11.5878 73.2382 12.954 72.0777 13.0405 70.5922C13.127 69.0448 11.7953 67.745 10.0832 67.6676ZM9.89292 71.3659C9.32221 71.3504 8.87256 70.9171 8.88985 70.4065C8.90715 69.9113 9.3568 69.509 9.92751 69.509H9.9794C10.5501 69.54 10.9825 69.9578 10.9652 70.4684C10.9479 70.979 10.4636 71.3814 9.89292 71.3659Z" fill="url(#paint13_linear_1442_1595)"/>
<defs>
<linearGradient id="paint0_linear_1442_1595" x1="-42.3708" y1="47.0216" x2="55.1581" y2="-26.6629" gradientUnits="userSpaceOnUse">
<stop offset="0.29" stop-color="#7516DE"/>
<stop offset="0.37" stop-color="#7C12E5"/>
<stop offset="0.41" stop-color="#8315E5"/>
<stop offset="0.59" stop-color="#A223E5"/>
<stop offset="0.69" stop-color="#AD28E5"/>
<stop offset="1" stop-color="#BC44E5"/>
</linearGradient>
<linearGradient id="paint1_linear_1442_1595" x1="-39.2447" y1="51.1588" x2="58.2842" y2="-22.5259" gradientUnits="userSpaceOnUse">
<stop offset="0.03" stop-color="#3422D2"/>
<stop offset="0.17" stop-color="#6021CA"/>
<stop offset="0.29" stop-color="#7516DE"/>
<stop offset="0.37" stop-color="#7C12E5"/>
<stop offset="0.41" stop-color="#8315E5"/>
<stop offset="0.59" stop-color="#A223E5"/>
<stop offset="0.69" stop-color="#AD28E5"/>
<stop offset="1" stop-color="#860D81"/>
</linearGradient>
<linearGradient id="paint2_linear_1442_1595" x1="-36.0817" y1="55.3459" x2="61.4471" y2="-18.3386" gradientUnits="userSpaceOnUse">
<stop offset="0.17" stop-color="#6021CA"/>
<stop offset="0.29" stop-color="#7516DE"/>
<stop offset="0.37" stop-color="#7C12E5"/>
<stop offset="0.41" stop-color="#8315E5"/>
<stop offset="0.59" stop-color="#A223E5"/>
<stop offset="0.69" stop-color="#AD28E5"/>
<stop offset="1" stop-color="#A711BF"/>
</linearGradient>
<linearGradient id="paint3_linear_1442_1595" x1="-33.0314" y1="59.3838" x2="64.4975" y2="-14.3007" gradientUnits="userSpaceOnUse">
<stop offset="0.03" stop-color="#3F33AA"/>
<stop offset="0.17" stop-color="#6021CA"/>
<stop offset="0.29" stop-color="#7516DE"/>
<stop offset="0.37" stop-color="#7C12E5"/>
<stop offset="0.41" stop-color="#8315E5"/>
<stop offset="0.59" stop-color="#A223E5"/>
<stop offset="0.69" stop-color="#AD28E5"/>
<stop offset="1" stop-color="#A30C9D"/>
</linearGradient>
<linearGradient id="paint4_linear_1442_1595" x1="-30.3747" y1="62.8998" x2="67.1541" y2="-10.7847" gradientUnits="userSpaceOnUse">
<stop offset="0.17" stop-color="#6021CA"/>
<stop offset="0.29" stop-color="#7516DE"/>
<stop offset="0.37" stop-color="#7C12E5"/>
<stop offset="0.41" stop-color="#8315E5"/>
<stop offset="0.59" stop-color="#A223E5"/>
<stop offset="0.69" stop-color="#AD28E5"/>
<stop offset="1" stop-color="#BC44E5"/>
</linearGradient>
<linearGradient id="paint5_linear_1442_1595" x1="-27.2488" y1="67.037" x2="70.2803" y2="-6.6475" gradientUnits="userSpaceOnUse">
<stop offset="0.17" stop-color="#6021CA"/>
<stop offset="0.29" stop-color="#7516DE"/>
<stop offset="0.37" stop-color="#7C12E5"/>
<stop offset="0.41" stop-color="#8315E5"/>
<stop offset="0.59" stop-color="#A223E5"/>
<stop offset="0.69" stop-color="#AD28E5"/>
<stop offset="1" stop-color="#87087A"/>
</linearGradient>
<linearGradient id="paint6_linear_1442_1595" x1="-24.0857" y1="71.2241" x2="73.4432" y2="-2.46039" gradientUnits="userSpaceOnUse">
<stop offset="0.03" stop-color="#3F33AA"/>
<stop offset="0.17" stop-color="#6021CA"/>
<stop offset="0.29" stop-color="#7516DE"/>
<stop offset="0.37" stop-color="#7C12E5"/>
<stop offset="0.41" stop-color="#8315E5"/>
<stop offset="0.59" stop-color="#A223E5"/>
<stop offset="0.69" stop-color="#AD28E5"/>
<stop offset="1" stop-color="#D116BF"/>
</linearGradient>
<linearGradient id="paint7_linear_1442_1595" x1="-36.5132" y1="54.7746" x2="61.0157" y2="-18.9099" gradientUnits="userSpaceOnUse">
<stop offset="0.03" stop-color="#3F33AA"/>
<stop offset="0.17" stop-color="#6021CA"/>
<stop offset="0.29" stop-color="#7516DE"/>
<stop offset="0.37" stop-color="#7C12E5"/>
<stop offset="0.41" stop-color="#8315E5"/>
<stop offset="0.59" stop-color="#A223E5"/>
<stop offset="0.69" stop-color="#AD28E5"/>
<stop offset="1" stop-color="#BC44E5"/>
</linearGradient>
<linearGradient id="paint8_linear_1442_1595" x1="-33.3871" y1="58.9118" x2="64.1418" y2="-14.7727" gradientUnits="userSpaceOnUse">
<stop offset="0.03" stop-color="#3F33AA"/>
<stop offset="0.17" stop-color="#6021CA"/>
<stop offset="0.29" stop-color="#7516DE"/>
<stop offset="0.37" stop-color="#7C12E5"/>
<stop offset="0.41" stop-color="#8315E5"/>
<stop offset="0.59" stop-color="#A223E5"/>
<stop offset="0.69" stop-color="#AD28E5"/>
<stop offset="1" stop-color="#BC44E5"/>
</linearGradient>
<linearGradient id="paint9_linear_1442_1595" x1="-30.2241" y1="63.099" x2="67.3047" y2="-10.5854" gradientUnits="userSpaceOnUse">
<stop offset="0.17" stop-color="#6021CA"/>
<stop offset="0.29" stop-color="#7516DE"/>
<stop offset="0.37" stop-color="#7C12E5"/>
<stop offset="0.41" stop-color="#8315E5"/>
<stop offset="0.59" stop-color="#A223E5"/>
<stop offset="0.69" stop-color="#AD28E5"/>
<stop offset="1" stop-color="#BC44E5"/>
</linearGradient>
<linearGradient id="paint10_linear_1442_1595" x1="-27.1738" y1="67.137" x2="70.3551" y2="-6.54757" gradientUnits="userSpaceOnUse">
<stop stop-color="#992BDD"/>
</linearGradient>
<linearGradient id="paint11_linear_1442_1595" x1="-23.4899" y1="72.0135" x2="74.0392" y2="-1.67105" gradientUnits="userSpaceOnUse">
<stop offset="0.03" stop-color="#3F33AA"/>
<stop offset="0.17" stop-color="#6021CA"/>
<stop offset="0.29" stop-color="#7516DE"/>
<stop offset="0.37" stop-color="#7C12E5"/>
<stop offset="0.41" stop-color="#8315E5"/>
<stop offset="0.59" stop-color="#A223E5"/>
<stop offset="0.69" stop-color="#AD28E5"/>
<stop offset="1" stop-color="#F42EA5"/>
</linearGradient>
<linearGradient id="paint12_linear_1442_1595" x1="-7.21761" y1="93.552" x2="90.3113" y2="19.8674" gradientUnits="userSpaceOnUse">
<stop offset="0.17" stop-color="#6021CA"/>
<stop offset="0.29" stop-color="#7516DE"/>
<stop offset="0.37" stop-color="#7C12E5"/>
<stop offset="0.41" stop-color="#8315E5"/>
<stop offset="0.59" stop-color="#A223E5"/>
<stop offset="0.69" stop-color="#AD28E5"/>
<stop offset="1" stop-color="#BC44E5"/>
</linearGradient>
<linearGradient id="paint13_linear_1442_1595" x1="-13.8187" y1="84.8136" x2="83.7102" y2="11.1291" gradientUnits="userSpaceOnUse">
<stop stop-color="#3D19A0"/>
<stop offset="0.03" stop-color="#2919BE"/>
<stop offset="0.17" stop-color="#4E14B0"/>
<stop offset="0.29" stop-color="#3216DE"/>
<stop offset="0.37" stop-color="#7C12E5"/>
<stop offset="0.41" stop-color="#8315E5"/>
<stop offset="0.59" stop-color="#A223E5"/>
<stop offset="0.69" stop-color="#9D3CC7"/>
<stop offset="1" stop-color="#B5147E"/>
</linearGradient>
</defs>
</svg>
